<svg width="20" height="20" viewBox="0 0 20 20" fill="none" xmlns="http://www.w3.org/2000/svg">
    <path d="M11.8618 5.78734C11.8515 6.3906 11.8597 6.99332 11.8597 7.6178C11.9456 7.62161 12.0169 7.62813 12.0887 7.62813C12.7942 7.62868 13.5003 7.62759 14.2064 7.62868C14.6339 7.62977 14.7394 7.73475 14.74 8.1547C14.7411 8.96249 14.7416 9.77029 14.74 10.5781C14.7389 10.9523 14.6459 11.047 14.2695 11.0486C13.5498 11.0519 12.8307 11.0497 12.111 11.0497H11.8608V17.6763C11.8608 18.2753 11.802 18.3329 11.1933 18.3329C10.4192 18.3329 9.64572 18.3335 8.87219 18.3324C8.44246 18.3318 8.34291 18.2334 8.34236 17.8069C8.34182 15.6555 8.34236 13.5035 8.34236 11.3516V11.0872C8.25968 11.0823 8.18842 11.0747 8.11716 11.0747C7.52695 11.0736 6.9362 11.0753 6.346 11.0736C5.93639 11.072 5.83738 10.9768 5.8363 10.571C5.83303 9.77681 5.83358 8.98262 5.83575 8.18842C5.83684 7.7663 5.93367 7.67165 6.35089 7.67111C6.93457 7.67056 7.51825 7.67111 8.10193 7.67111H8.34236C8.34236 7.57047 8.34128 7.49105 8.34236 7.41163C8.35651 6.63811 8.32876 5.86132 8.39404 5.09269C8.55941 3.15779 10.0472 1.75707 11.9913 1.68418C12.8045 1.65371 13.6194 1.67112 14.4343 1.6733C14.7035 1.67438 14.8189 1.79079 14.8205 2.06169C14.8249 2.86949 14.8249 3.67728 14.8205 4.48508C14.8189 4.75978 14.7057 4.86857 14.4109 4.87565C13.8615 4.8887 13.3115 4.88925 12.7621 4.89741C12.1246 4.9072 11.8733 5.14818 11.8618 5.78734Z" fill="#555555"/>
</svg>
