<svg width="20" height="20" viewBox="0 0 20 20" fill="none" xmlns="http://www.w3.org/2000/svg">
    <path d="M18.3293 6.30975C18.3179 4.51344 17.517 3.1504 15.9673 2.24307C15.2853 1.84362 14.5317 1.6708 13.7413 1.67039C11.2464 1.66835 8.75142 1.66224 6.25647 1.67202C4.22578 1.67976 2.52932 2.91929 1.88694 4.85501C1.79237 5.14033 1.75773 5.44604 1.69577 5.74237C1.68477 5.79495 1.6758 5.84794 1.66602 5.90052V14.1024C1.71085 14.3518 1.73531 14.607 1.80338 14.8499C2.32022 16.6947 3.51899 17.8279 5.38786 18.2501C5.55539 18.288 5.7278 18.306 5.89777 18.3333H14.1012C14.3511 18.2885 14.6063 18.264 14.8496 18.1959C16.6924 17.6799 17.8288 16.4832 18.2445 14.6163C18.3114 14.3176 18.3285 14.0029 18.3293 13.6956C18.3358 11.2336 18.3448 8.77169 18.3293 6.30975ZM10.0068 14.5687C7.49762 14.5829 5.43025 12.5188 5.43147 10.0006C5.4327 7.48488 7.46624 5.44848 9.99217 5.43422C12.5014 5.41995 14.5688 7.48366 14.5675 10.0018C14.5663 12.5176 12.5328 14.554 10.0068 14.5687ZM14.8431 6.54657C14.089 6.54413 13.4548 5.90908 13.4552 5.15664C13.4552 4.40175 14.0874 3.77241 14.8451 3.77322C15.6069 3.77363 16.231 4.39849 16.2289 5.15908C16.2273 5.91723 15.5963 6.54902 14.8431 6.54657Z" fill="#555555"/>
    <path d="M1.66602 14.1027C1.71085 14.3521 1.73531 14.6073 1.80338 14.8502C2.32022 16.695 3.51899 17.8282 5.38786 18.2505C5.55539 18.2884 5.7278 18.3063 5.89777 18.3336C4.48705 18.3336 3.07633 18.3336 1.66602 18.3336C1.66602 16.9233 1.66602 15.513 1.66602 14.1027Z" fill="white"/>
    <path d="M13.5834 10.0093C13.5768 11.991 11.9595 13.5974 9.98421 13.5844C8.0057 13.5713 6.40951 11.9654 6.41604 9.99377C6.42256 8.0124 8.04034 6.40521 10.0156 6.41866C11.9941 6.43171 13.5899 8.03767 13.5834 10.0093Z" fill="#555555"/>
    <path d="M15.244 5.15555C15.2448 5.37484 15.0594 5.56152 14.8425 5.5603C14.6277 5.55908 14.4382 5.36587 14.4414 5.15147C14.4451 4.94074 14.6261 4.76058 14.838 4.75772C15.0602 4.75487 15.2432 4.93422 15.244 5.15555Z" fill="#555555"/>
</svg>
