<svg width="20" height="20" viewBox="0 0 20 20" fill="none" xmlns="http://www.w3.org/2000/svg">
    <path d="M16.4374 7.27955C16.4422 8.55319 16.2127 9.78296 15.6504 10.9338C15.0396 12.1831 14.1345 13.1429 12.8089 13.6282C11.7991 13.9987 10.7671 14.0898 9.7574 13.6066C9.49147 13.4797 9.25051 13.3015 8.98593 13.1388C8.90021 13.4682 8.80639 13.8097 8.72337 14.154C8.49794 15.0928 8.22661 16.0162 7.80813 16.8909C7.6016 17.3222 7.37954 17.7447 7.02316 18.0761C6.95634 18.1382 6.88007 18.1922 6.8011 18.2395C6.49805 18.4197 6.19702 18.336 6.033 18.0255C5.86629 17.7096 5.83389 17.364 5.82444 17.0158C5.79339 15.8238 6.01006 14.6656 6.29286 13.5141C6.61212 12.2155 6.91315 10.9115 7.2162 9.60882C7.23645 9.52107 7.22632 9.41646 7.19865 9.32939C6.86927 8.28928 6.84362 7.26943 7.41126 6.29749C7.72377 5.76293 8.17329 5.40115 8.80437 5.30193C9.69463 5.16154 10.4803 5.80342 10.5458 6.70246C10.5937 7.35245 10.4101 7.95788 10.2393 8.56804C10.0807 9.13095 9.90859 9.68981 9.75065 10.2527C9.66291 10.5652 9.67101 10.8771 9.83772 11.1666C10.1219 11.658 10.5768 11.8179 11.1093 11.77C11.7343 11.7147 12.1913 11.357 12.5591 10.8757C13.0296 10.2602 13.2901 9.55145 13.4467 8.80157C13.6046 8.0436 13.6877 7.27888 13.5756 6.5074C13.3954 5.26211 12.7002 4.41774 11.5109 4.03167C10.3109 3.64222 9.11147 3.69757 7.96945 4.2652C6.78558 4.85309 6.08565 5.83312 5.79744 7.10946C5.65165 7.75809 5.62466 8.41415 5.89194 9.04321C5.98576 9.26392 6.12345 9.4718 6.26991 9.66417C6.44473 9.89297 6.5156 10.1272 6.43798 10.4073C6.37251 10.6422 6.32053 10.8804 6.25304 11.1146C6.12075 11.5777 5.79002 11.7295 5.35265 11.5345C4.48466 11.1477 3.94469 10.4626 3.64569 9.58722C3.15837 8.16239 3.24342 6.75241 3.89407 5.39778C4.85048 3.40801 6.47105 2.26869 8.60863 1.82997C8.94138 1.76179 9.28426 1.73885 9.62241 1.69362C9.65886 1.6889 9.69463 1.67608 9.73041 1.66663H10.6423C10.8245 1.68822 11.0067 1.7078 11.189 1.7321C12.7421 1.93458 14.0751 2.57579 15.1078 3.76776C15.9758 4.77007 16.4334 5.94584 16.4374 7.27955Z" fill="#FF782D"/>
</svg>
