<svg width="20" height="20" viewBox="0 0 20 20" fill="none" xmlns="http://www.w3.org/2000/svg">
    <path d="M18.869 5.72926C18.6686 4.62179 17.9918 3.91087 16.9336 3.71732C16.4969 3.63715 16.0523 3.57875 15.6088 3.5587C13.728 3.47367 11.8463 3.40696 9.96492 3.33337C9.96435 3.35284 9.96378 3.37231 9.96321 3.39178C9.53058 3.39178 9.09767 3.38548 8.66534 3.39293C6.87157 3.42299 5.07752 3.44275 3.2932 3.6655C2.18344 3.80379 1.41468 4.46375 1.18363 5.56091C1.0545 6.17362 0.984066 6.8018 0.933102 7.42683C0.824016 8.76363 0.797102 10.1047 0.892159 11.4435C0.95114 12.2716 1.02673 13.1022 1.16444 13.9202C1.34511 14.9916 2.08352 15.6999 3.12313 15.8542C3.73871 15.9456 4.3603 16.0234 4.9816 16.0438C6.88875 16.1056 8.79704 16.1629 10.705 16.1723C12.607 16.1821 14.5099 16.1368 16.4044 15.9378C16.8929 15.8863 17.3742 15.8084 17.8011 15.535C18.5071 15.0829 18.8284 14.4035 18.9054 13.6055C19.0093 12.5258 19.1147 11.4435 19.1502 10.3604C19.2015 8.81059 19.1459 7.26134 18.869 5.72926ZM8.18776 12.5184V7.04545C9.77624 7.95851 11.3481 8.86213 12.9478 9.78177C11.3504 10.7003 9.77882 11.6036 8.18776 12.5184Z" fill="#555555"/>
</svg>
